<?xml version="1.0" encoding="utf-8"?>
<!-- Generator: Adobe Illustrator 26.0.3, SVG Export Plug-In . SVG Version: 6.00 Build 0)  -->
<svg version="1.0" id="Layer_1" xmlns="http://www.w3.org/2000/svg" xmlns:xlink="http://www.w3.org/1999/xlink" x="0px" y="0px"
	 viewBox="0 0 320 210" style="enable-background:new 0 0 320 210;" xml:space="preserve">
<style type="text/css">
	.st0{fill:#003366;}
</style>
<path class="st0" d="M236.1,167.3c-0.4,0.2-0.9,0.3-1.4,0.3c-0.7,0-1.4-0.1-2-0.4c-0.6-0.2-1.1-0.6-1.5-1.1c-0.4-0.5-0.7-1-0.9-1.6
	c-0.2-0.6-0.3-1.3-0.3-2c0-0.7,0.1-1.4,0.3-2c0.2-0.6,0.5-1.2,0.9-1.6c0.4-0.5,0.9-0.8,1.5-1.1c0.6-0.3,1.3-0.4,2-0.4
	c0.5,0,1,0.1,1.4,0.2c0.5,0.1,0.9,0.4,1.3,0.6c0.4,0.3,0.7,0.7,0.9,1.1c0.3,0.5,0.4,1,0.5,1.5h-2c-0.1-0.5-0.4-0.9-0.7-1.2
	c-0.4-0.3-0.8-0.4-1.3-0.4c-0.4,0-0.9,0.1-1.2,0.3c-0.3,0.2-0.6,0.4-0.8,0.8c-0.2,0.3-0.4,0.7-0.5,1.1c-0.1,0.4-0.1,0.8-0.1,1.3
	c0,0.4,0,0.8,0.1,1.2c0.1,0.4,0.3,0.7,0.5,1c0.2,0.3,0.5,0.6,0.8,0.8c0.4,0.2,0.8,0.3,1.2,0.3c0.6,0,1.2-0.1,1.6-0.5
	c0.4-0.4,0.7-1,0.7-1.6h-2.2v-1.6h4.1v5.3h-1.4l-0.2-1.1C237,166.7,236.6,167.1,236.1,167.3z M225.4,157.6c0.4,0,0.8,0.1,1.2,0.2
	c0.3,0.1,0.6,0.3,0.9,0.6c0.3,0.2,0.5,0.5,0.6,0.9c0.1,0.3,0.2,0.7,0.2,1.1c0,0.5-0.1,1-0.4,1.5c-0.3,0.5-0.7,0.8-1.2,1l0,0
	c0.2,0.1,0.5,0.2,0.6,0.3c0.2,0.2,0.3,0.3,0.4,0.5c0.1,0.2,0.2,0.4,0.2,0.7c0,0.2,0.1,0.5,0.1,0.8c0,0.1,0,0.3,0,0.5s0,0.4,0,0.6
	s0.1,0.4,0.1,0.6c0,0.2,0.1,0.3,0.2,0.5h-2.1c-0.1-0.4-0.2-0.7-0.2-1.1c0-0.4-0.1-0.8-0.1-1.2c0-0.4-0.2-0.8-0.5-1.1
	c-0.3-0.3-0.7-0.4-1.2-0.4h-2.1v3.8h-2.1v-9.7L225.4,157.6z M224.7,162.1c0.4,0,0.8-0.1,1.1-0.3c0.3-0.3,0.4-0.7,0.4-1.1
	c0-0.4-0.1-0.7-0.4-1c-0.3-0.2-0.7-0.3-1.1-0.3h-2.4v2.8L224.7,162.1z M217.9,157.6v1.8h-5.1v2.1h4.7v1.7h-4.7v2.4h5.2v1.8h-7.4
	v-9.7L217.9,157.6z M205.2,165.7c0.2,0,0.4,0,0.6-0.1c0.2,0,0.4-0.1,0.5-0.2c0.1-0.1,0.3-0.2,0.3-0.4c0.1-0.2,0.2-0.4,0.1-0.6
	c0-0.4-0.1-0.8-0.4-1.1c-0.3-0.2-0.7-0.3-1.1-0.3h-2.3v2.7L205.2,165.7z M205.3,157.6c0.4,0,0.8,0,1.3,0.1c0.4,0.1,0.7,0.2,1,0.4
	c0.3,0.2,0.5,0.4,0.6,0.8c0.2,0.4,0.2,0.7,0.2,1.1c0,0.4-0.1,0.9-0.3,1.2c-0.3,0.3-0.6,0.6-1,0.8c0.5,0.1,1,0.4,1.3,0.9
	c0.9,1.2,0.6,2.9-0.6,3.7c-0.3,0.2-0.7,0.4-1.1,0.5c-0.4,0.1-0.8,0.2-1.3,0.2h-4.7v-9.7L205.3,157.6z M205,161.6
	c0.3,0,0.7-0.1,0.9-0.3c0.3-0.2,0.4-0.5,0.4-0.9c0-0.2,0-0.4-0.1-0.6c-0.1-0.1-0.2-0.3-0.3-0.3c-0.1-0.1-0.3-0.2-0.5-0.2
	c-0.2,0-0.4,0-0.6,0h-2v2.3L205,161.6z M192.2,157.6l4.1,6.5l0,0v-6.5h2v9.7h-2.1l-4-6.5l0,0v6.5h-2v-9.7H192.2z M185,157.6
	c0.4,0,0.8,0.1,1.2,0.2c0.3,0.1,0.6,0.3,0.9,0.6c0.3,0.2,0.4,0.5,0.6,0.9c0.1,0.3,0.2,0.7,0.2,1.1c0,0.5-0.1,1-0.4,1.5
	c-0.3,0.5-0.7,0.8-1.2,1l0,0c0.2,0.1,0.5,0.2,0.7,0.3c0.2,0.2,0.3,0.3,0.4,0.5c0.1,0.2,0.2,0.4,0.2,0.7c0.1,0.2,0.1,0.5,0.1,0.8
	c0,0.1,0,0.3,0,0.5s0,0.4,0,0.6s0.1,0.4,0.1,0.6c0,0.2,0.1,0.3,0.2,0.5H186c-0.1-0.4-0.2-0.7-0.2-1.1c0-0.4-0.1-0.8-0.1-1.2
	c0-0.4-0.2-0.8-0.5-1.1c-0.3-0.3-0.7-0.4-1.2-0.4h-2.1v3.8h-2.2v-9.7L185,157.6z M184.3,162c0.4,0,0.8-0.1,1.1-0.3
	c0.3-0.3,0.4-0.7,0.4-1.1c0-0.4-0.1-0.7-0.4-1c-0.3-0.2-0.7-0.4-1.1-0.3h-2.3v2.8L184.3,162z M176.5,166.6c-1.8,1.3-4.3,1.3-6.1,0
	c-0.8-0.8-1.2-1.9-1.1-3v-6.1h2.1v6.1c0,0.3,0,0.5,0.1,0.8c0,0.2,0.1,0.5,0.3,0.7c0.2,0.2,0.4,0.4,0.6,0.5c0.3,0.1,0.7,0.2,1,0.2
	c0.6,0.1,1.2-0.1,1.6-0.5c0.3-0.5,0.5-1,0.4-1.6v-6.1h2.1v6.1C177.7,164.7,177.3,165.8,176.5,166.6L176.5,166.6z M175.7,156.5h-1.8
	V155h1.8V156.5z M172.9,156.5h-1.8V155h1.9L172.9,156.5z M160.8,157.6l4.1,6.5l0,0v-6.5h2v9.7h-2.2l-4-6.5l0,0v6.5h-2v-9.7H160.8z
	 M156.3,164.5h-4.1v-1.7h4.1L156.3,164.5z M143.6,157.6l4.1,6.5l0,0v-6.5h2v9.7h-2.1l-4-6.5l0,0v6.5h-2v-9.7H143.6z M139.3,157.6
	v1.8h-5.1v2.1h4.7v1.7h-4.7v2.4h5.2v1.8H132v-9.7L139.3,157.6z M127.1,167.3c-0.4,0.2-0.9,0.3-1.4,0.3c-0.7,0-1.4-0.1-2-0.4
	c-0.6-0.2-1.1-0.6-1.5-1.1c-0.4-0.5-0.7-1-0.9-1.6c-0.2-0.6-0.3-1.3-0.3-2c0-0.7,0.1-1.4,0.3-2c0.2-0.6,0.5-1.2,0.9-1.6
	c0.4-0.5,0.9-0.8,1.5-1.1c0.6-0.3,1.3-0.4,2-0.4c0.5,0,1,0.1,1.5,0.2c0.5,0.1,0.9,0.4,1.3,0.6c0.4,0.3,0.7,0.7,0.9,1.1
	c0.3,0.5,0.4,1,0.4,1.5h-2c-0.1-0.5-0.3-0.9-0.7-1.2c-0.4-0.3-0.9-0.4-1.3-0.4c-0.4,0-0.8,0.1-1.2,0.3c-0.3,0.2-0.6,0.4-0.8,0.8
	c-0.2,0.3-0.4,0.7-0.5,1.1c-0.1,0.4-0.2,0.8-0.2,1.3c0,0.4,0,0.8,0.2,1.2c0.1,0.4,0.3,0.7,0.5,1c0.2,0.3,0.5,0.6,0.8,0.8
	c0.4,0.2,0.8,0.3,1.2,0.3c1.1,0.1,2.2-0.7,2.3-1.8c0-0.1,0-0.2,0-0.2h-2.2v-1.6h4.1v5.3h-1.4l-0.2-1.1
	C128,166.7,127.6,167.1,127.1,167.3z M113,157.6l4.1,6.5l0,0v-6.5h2v9.7H117l-4.1-6.5l0,0v6.5h-2v-9.7H113z M106,157.6l3.6,9.7h-2.2
	l-0.8-2.2h-3.6l-0.8,2.2h-2.2l3.7-9.7H106z M106.1,163.6l-1.2-3.6l0,0l-1.3,3.6L106.1,163.6z M94.5,157.6v8h4.7v1.8h-6.8v-9.7
	L94.5,157.6z M87.6,157.6c0.4,0,0.8,0.1,1.2,0.2c0.3,0.1,0.6,0.3,0.9,0.6c0.2,0.2,0.4,0.5,0.6,0.9c0.1,0.3,0.2,0.7,0.2,1.1
	c0,0.5-0.1,1-0.4,1.5c-0.3,0.5-0.7,0.8-1.2,1l0,0c0.2,0.1,0.5,0.2,0.7,0.3c0.2,0.2,0.3,0.3,0.4,0.5c0.1,0.2,0.2,0.4,0.2,0.7
	c0,0.2,0.1,0.5,0.1,0.8c0,0.1,0,0.3,0,0.5s0,0.4,0,0.6c0,0.2,0.1,0.4,0.1,0.6c0,0.2,0.1,0.3,0.2,0.5h-2.1c-0.1-0.4-0.2-0.7-0.2-1.1
	c0-0.4-0.1-0.8-0.1-1.2c0-0.4-0.2-0.8-0.5-1.1c-0.3-0.3-0.7-0.4-1.2-0.4h-2.1v3.8h-2.1v-9.7L87.6,157.6z M86.8,162.1
	c0.4,0,0.8-0.1,1.1-0.3c0.3-0.3,0.4-0.7,0.4-1.1c0-0.4-0.1-0.7-0.4-1c-0.3-0.2-0.7-0.3-1.1-0.3h-2.3v2.8L86.8,162.1z M80.2,157.6
	v1.8h-5.1v2.1h4.7v1.7h-4.7v2.4h5.2v1.8H73v-9.7L80.2,157.6z"/>
<path class="st0" d="M158.4,144.7v-1.8h8v1.8h-2.9v7.9h-2.1v-7.9H158.4z M155,142.9l3.6,9.7h-2.2l-0.7-2.2H152l-0.8,2.2h-2.1
	l3.7-9.7H155z M155.1,148.9l-1.2-3.6l0,0l-1.3,3.6H155.1z M156.2,141.8h-1.9v-1.6h1.8L156.2,141.8z M153.4,141.8h-1.9v-1.6h1.8
	L153.4,141.8z M141.3,144.7v-1.8h8v1.8h-2.9v7.9h-2.1v-7.9H141.3z M139.6,152.6h-2.1v-9.7h2.1V152.6z M129.6,150.2
	c0.1,0.2,0.3,0.4,0.5,0.6c0.2,0.1,0.4,0.3,0.7,0.3c0.3,0.1,0.5,0.1,0.8,0.1c0.2,0,0.4,0,0.6-0.1c0.2,0,0.4-0.1,0.6-0.2
	c0.2-0.1,0.4-0.2,0.5-0.4c0.1-0.2,0.2-0.4,0.2-0.6c0-0.2-0.1-0.5-0.2-0.6c-0.2-0.2-0.4-0.3-0.7-0.4c-0.3-0.1-0.6-0.2-0.9-0.3
	l-1.1-0.3c-0.4-0.1-0.7-0.2-1.1-0.3c-0.3-0.1-0.6-0.3-0.9-0.5c-0.3-0.2-0.5-0.5-0.7-0.8c-0.2-0.3-0.3-0.7-0.3-1.1
	c0-0.5,0.1-0.9,0.3-1.3c0.2-0.4,0.5-0.7,0.8-0.9c0.4-0.2,0.8-0.4,1.2-0.5c0.4-0.1,0.9-0.2,1.3-0.2c0.5,0,1,0,1.5,0.2
	c0.4,0.1,0.9,0.3,1.3,0.6c0.4,0.3,0.7,0.6,0.8,1c0.2,0.4,0.3,0.9,0.3,1.4h-2.1c0-0.2-0.1-0.5-0.2-0.7c-0.1-0.2-0.2-0.3-0.4-0.4
	c-0.2-0.1-0.4-0.2-0.6-0.2c-0.2,0-0.5-0.1-0.7-0.1c-0.2,0-0.3,0-0.5,0c-0.2,0-0.3,0.1-0.5,0.2c-0.1,0.1-0.3,0.2-0.3,0.4
	c-0.1,0.1-0.1,0.3-0.1,0.5c0,0.2,0,0.3,0.1,0.5c0.1,0.1,0.3,0.2,0.4,0.3c0.3,0.1,0.6,0.2,0.9,0.3c0.4,0.1,0.9,0.2,1.5,0.4
	c0.2,0.1,0.4,0.1,0.7,0.2c0.4,0.1,0.7,0.2,1,0.5c0.3,0.2,0.6,0.5,0.8,0.8c0.2,0.4,0.4,0.9,0.3,1.4c0,0.4-0.1,0.8-0.2,1.2
	c-0.2,0.4-0.4,0.7-0.8,1c-0.4,0.3-0.8,0.5-1.3,0.6c-0.6,0.2-1.2,0.2-1.7,0.2c-0.5,0-1.1-0.1-1.6-0.2c-0.5-0.1-0.9-0.3-1.3-0.6
	c-0.4-0.3-0.7-0.6-0.9-1c-0.2-0.5-0.3-1-0.3-1.6h2.1C129.4,149.7,129.5,150,129.6,150.2z M123,142.9c0.4,0,0.8,0.1,1.2,0.2
	c0.3,0.1,0.6,0.3,0.9,0.6c0.3,0.2,0.4,0.5,0.6,0.9c0.1,0.3,0.2,0.7,0.2,1c0,0.5-0.1,1-0.4,1.5c-0.3,0.5-0.7,0.8-1.2,1l0,0
	c0.5,0.1,0.9,0.4,1.1,0.9c0.1,0.2,0.2,0.4,0.2,0.7c0,0.2,0.1,0.5,0.1,0.7c0,0.2,0,0.3,0,0.5c0,0.2,0,0.4,0,0.6
	c0,0.2,0.1,0.4,0.1,0.6c0,0.2,0.1,0.3,0.2,0.5H124c-0.1-0.4-0.2-0.7-0.2-1.1c0-0.4-0.1-0.8-0.1-1.2c0-0.4-0.2-0.8-0.5-1.1
	c-0.3-0.3-0.7-0.4-1.2-0.4h-2.1v3.8h-2.1v-9.7H123z M122.2,147.3c0.4,0,0.8-0.1,1.1-0.3c0.3-0.3,0.4-0.7,0.4-1.1
	c0-0.4-0.1-0.7-0.4-1c-0.3-0.2-0.7-0.4-1.1-0.3h-2.4v2.8L122.2,147.3z M115.7,142.9v1.8h-5.1v2.1h4.7v1.7h-4.7v2.4h5.2v1.8h-7.4
	v-9.7H115.7z M101.2,152.6l-3.2-9.7h2.2l2.2,6.9l0,0l2.2-6.9h2.2l-3.2,9.7H101.2z M96.5,152.6h-2.1v-9.7h2.1L96.5,152.6z
	 M85.9,142.9l4.1,6.5l0,0v-6.5h2v9.7h-2.1l-4-6.5l0,0v6.5h-2v-9.7H85.9z M80.2,151.9c-0.8,0.7-1.9,1-3,1c-1.1,0.1-2.2-0.3-3.1-1
	c-0.8-0.7-1.2-1.8-1.2-2.9v-6.1h2.2v6.1c0,0.3,0,0.5,0.1,0.8c0,0.2,0.1,0.5,0.3,0.7c0.2,0.2,0.4,0.4,0.6,0.5
	c0.3,0.1,0.7,0.2,1.1,0.2c0.6,0.1,1.2-0.1,1.6-0.5c0.3-0.5,0.5-1,0.4-1.6v-6.1h2.1v6.1C81.4,150.1,81,151.1,80.2,151.9L80.2,151.9z"
	/>
<path class="st0" d="M241.9,128c0.4,0,0.8,0.1,1.2,0.2c0.3,0.1,0.6,0.3,0.9,0.6c0.3,0.2,0.4,0.5,0.6,0.9c0.1,0.3,0.2,0.7,0.2,1.1
	c0,0.5-0.1,1-0.4,1.5c-0.3,0.5-0.7,0.8-1.2,1l0,0c0.2,0.1,0.5,0.2,0.6,0.3c0.2,0.2,0.3,0.3,0.4,0.5c0.1,0.2,0.2,0.4,0.2,0.7
	c0.1,0.2,0.1,0.5,0.1,0.7c0,0.2,0,0.3,0,0.5c0,0.2,0,0.4,0,0.6c0,0.2,0,0.4,0.1,0.6c0,0.2,0.1,0.3,0.2,0.5h-2.1
	c-0.1-0.3-0.2-0.7-0.2-1.1c0-0.4-0.1-0.8-0.1-1.2c0-0.4-0.2-0.8-0.5-1.1c-0.3-0.3-0.7-0.4-1.1-0.4h-2.1v3.8h-2.1V128H241.9z
	 M241.1,132.4c0.4,0,0.8-0.1,1.1-0.3c0.3-0.3,0.4-0.7,0.4-1.1c0-0.4-0.1-0.7-0.4-1c-0.3-0.2-0.7-0.3-1.1-0.3h-2.3v2.8L241.1,132.4z
	 M234.6,128v1.8h-5.1v2.1h4.7v1.7h-4.7v2.4h5.2v1.8h-7.4V128H234.6z M221.1,128c0.6,0,1.2,0.1,1.8,0.3c0.5,0.2,1,0.5,1.4,0.9
	c0.4,0.4,0.7,0.9,0.9,1.5c0.2,0.7,0.3,1.4,0.3,2.1c0,0.7-0.1,1.4-0.3,2c-0.2,0.6-0.4,1.1-0.8,1.6c-0.4,0.4-0.9,0.8-1.4,1
	c-0.6,0.3-1.3,0.4-2,0.4h-4.2V128H221.1z M221,136c0.3,0,0.6-0.1,0.9-0.2c0.3-0.1,0.6-0.3,0.8-0.5c0.2-0.3,0.4-0.6,0.6-0.9
	c0.1-0.4,0.2-0.9,0.2-1.4c0-0.4,0-0.9-0.1-1.3c-0.1-0.4-0.2-0.7-0.5-1c-0.2-0.3-0.5-0.5-0.9-0.7c-0.4-0.2-0.9-0.2-1.3-0.2h-1.5v6.1
	L221,136z M208.6,128l4.1,6.5l0,0V128h2v9.7h-2.1l-4.1-6.5l0,0v6.5h-2V128H208.6z M201.6,128l3.6,9.7H203l-0.7-2.2h-3.6l-0.8,2.2
	h-2.1l3.7-9.7H201.6z M201.7,134l-1.2-3.6l0,0l-1.3,3.6H201.7z M185.9,128h2.5l1.9,3.1l2-3.1h2.4l-3.1,4.6l3.4,5.1h-2.6l-2.1-3.4
	l-2.2,3.3h-2.4l3.4-5.1L185.9,128z M184.3,128v1.8h-5.1v2.1h4.7v1.7h-4.7v2.4h5.2v1.8H177V128H184.3z M170.6,128v8h4.7v1.8h-6.9V128
	H170.6z M163.3,128l3.6,9.7h-2.2l-0.7-2.2h-3.6l-0.8,2.2h-2.2l3.7-9.7H163.3z M163.4,134l-1.2-3.6l0,0l-1.3,3.6H163.4z M156.4,134.9
	h-4.1v-1.7h4.1V134.9z M143.8,128v3.7h3.9V128h2.1v9.7h-2.1v-4.2h-3.9v4.2h-2.1V128H143.8z M137.3,130.6c-0.1-0.2-0.3-0.4-0.5-0.5
	c-0.2-0.2-0.4-0.3-0.6-0.4c-0.2-0.1-0.5-0.1-0.8-0.1c-0.4,0-0.8,0.1-1.2,0.3c-0.3,0.2-0.6,0.4-0.8,0.7c-0.2,0.3-0.4,0.7-0.5,1.1
	c-0.1,0.4-0.1,0.8-0.1,1.3c0,0.4,0,0.8,0.1,1.2c0.1,0.4,0.3,0.7,0.5,1c0.2,0.3,0.5,0.6,0.8,0.7c0.4,0.2,0.8,0.3,1.2,0.3
	c0.6,0,1.1-0.2,1.5-0.6c0.4-0.4,0.6-1,0.7-1.6h2.1c0,0.6-0.2,1.1-0.4,1.6c-0.2,0.5-0.5,0.9-0.9,1.2c-0.4,0.3-0.8,0.6-1.3,0.8
	c-0.5,0.2-1.1,0.3-1.6,0.3c-0.7,0-1.4-0.1-2-0.4c-0.6-0.2-1.1-0.6-1.5-1.1c-0.4-0.5-0.7-1-0.9-1.6c-0.2-0.6-0.3-1.3-0.3-2
	c0-0.7,0.1-1.4,0.3-2c0.2-0.6,0.5-1.2,0.9-1.6c0.4-0.5,0.9-0.8,1.5-1.1c0.6-0.3,1.3-0.4,2-0.4c0.5,0,1,0.1,1.5,0.2
	c0.5,0.2,0.9,0.4,1.3,0.7c0.4,0.3,0.7,0.7,0.9,1.1c0.2,0.5,0.4,1,0.5,1.5h-2.1C137.5,131,137.4,130.8,137.3,130.6L137.3,130.6z
	 M128.7,137.7h-2.1V128h2.2L128.7,137.7z M121.6,128c0.4,0,0.8,0.1,1.2,0.2c0.3,0.1,0.6,0.3,0.9,0.6c0.2,0.2,0.4,0.5,0.6,0.9
	c0.3,0.8,0.2,1.7-0.2,2.5c-0.3,0.5-0.7,0.8-1.2,1l0,0c0.2,0.1,0.5,0.2,0.7,0.3c0.2,0.1,0.3,0.3,0.5,0.5c0.1,0.2,0.2,0.4,0.2,0.7
	c0,0.2,0.1,0.5,0.1,0.7c0,0.2,0,0.3,0,0.5s0,0.4,0,0.6c0,0.2,0.1,0.4,0.1,0.6c0,0.2,0.1,0.3,0.2,0.5h-2.1c-0.1-0.4-0.2-0.7-0.2-1.1
	c0-0.4-0.1-0.8-0.1-1.2c0-0.4-0.2-0.8-0.5-1.1c-0.3-0.3-0.7-0.4-1.1-0.4h-2.1v3.8h-2.1V128H121.6z M120.8,132.4
	c0.4,0,0.8-0.1,1.1-0.3c0.3-0.3,0.4-0.7,0.4-1.1c0-0.4-0.1-0.7-0.4-1c-0.3-0.2-0.7-0.3-1.1-0.3h-2.3v2.8L120.8,132.4z M110.2,128
	c0.6,0,1.2,0.1,1.8,0.3c0.5,0.2,1,0.5,1.4,0.9c0.4,0.4,0.7,0.9,0.9,1.5c0.2,0.7,0.3,1.4,0.3,2.1c0,0.7-0.1,1.4-0.3,2
	c-0.2,0.6-0.4,1.1-0.8,1.6c-0.4,0.4-0.9,0.8-1.4,1c-0.6,0.3-1.3,0.4-2,0.4H106V128H110.2z M110,136c0.3,0,0.6-0.1,0.9-0.2
	c0.3-0.1,0.6-0.3,0.8-0.5c0.2-0.3,0.4-0.6,0.5-0.9c0.1-0.4,0.2-0.9,0.2-1.4c0-0.4,0-0.9-0.1-1.3c-0.1-0.4-0.2-0.7-0.5-1
	c-0.2-0.3-0.5-0.6-0.9-0.7c-0.4-0.2-0.9-0.2-1.3-0.2h-1.6v6.1L110,136z M103.9,128v1.8h-5.1v2.1h4.7v1.7h-4.7v2.4h5.2v1.8h-7.4V128
	H103.9z M94.2,137.7H92V128h2.1L94.2,137.7z M86.8,128c0.4,0,0.8,0.1,1.2,0.2c0.3,0.1,0.6,0.3,0.9,0.6c0.2,0.2,0.5,0.5,0.6,0.9
	c0.1,0.3,0.2,0.7,0.2,1.1c0,0.5-0.1,1-0.4,1.5c-0.3,0.5-0.7,0.8-1.2,1l0,0c0.2,0.1,0.5,0.2,0.7,0.3c0.2,0.2,0.3,0.3,0.4,0.5
	c0.1,0.2,0.2,0.4,0.2,0.7c0,0.2,0.1,0.5,0.1,0.7c0,0.2,0,0.3,0,0.5s0,0.4,0,0.6c0,0.2,0.1,0.4,0.1,0.6c0,0.2,0.1,0.3,0.2,0.5h-2.1
	c-0.1-0.4-0.2-0.7-0.2-1.1c0-0.4-0.1-0.8-0.1-1.2c0-0.4-0.2-0.8-0.5-1.1c-0.3-0.3-0.7-0.4-1.1-0.4h-2.1v3.8h-2.1V128H86.8z
	 M86.1,132.4c0.4,0,0.8-0.1,1.1-0.3c0.3-0.3,0.4-0.7,0.4-1.1c0-0.4-0.1-0.7-0.4-1c-0.3-0.2-0.7-0.3-1.1-0.3h-2.3v2.8L86.1,132.4z
	 M79.8,128v1.8h-4.7v2.2h4.1v1.7h-4.1v4H73V128H79.8z"/>
<path class="st0" d="M236.3,110.2h-44.1c2.7,2.2,5.8,3.9,9.2,5h25.8C230.5,114,233.6,112.3,236.3,110.2z"/>
<path class="st0" d="M114.9,107.6h19.1v-0.1l0,0l1.6-5h-18.8"/>
<path class="st0" d="M114.1,110.2l-1.9,5h19.5l1.7-5"/>
<rect x="73.3" y="110.2" class="st0" width="18.3" height="5"/>
<rect x="73.3" y="102.6" class="st0" width="18.3" height="5"/>
<rect x="73.3" y="95.1" class="st0" width="18.3" height="5"/>
<rect x="73.3" y="87.5" class="st0" width="18.3" height="5"/>
<rect x="73.3" y="64.8" class="st0" width="18.3" height="5"/>
<rect x="73.3" y="57.3" class="st0" width="18.3" height="5"/>
<rect x="73.3" y="42.2" class="st0" width="55.8" height="5"/>
<rect x="73.3" y="49.7" class="st0" width="55.8" height="5"/>
<path class="st0" d="M147.2,64.8h-16.5l-1.9,5h16.8"/>
<path class="st0" d="M137.2,47.2h22.7l-1.9-5h-18.9"/>
<path class="st0" d="M134.4,54.8h28.3l-1.9-5h-24.5"/>
<path class="st0" d="M149.5,62.3h16l-2-5h-30l-1.9,5h16.3l0.7-2.3h0.2"/>
<path class="st0" d="M151.8,69.9h16.7l-2-5h-16.2"/>
<path class="st0" d="M154,77.4h17.2l-2-5h-16.8"/>
<path class="st0" d="M156.3,85h17.8l-2-5h-17.4"/>
<path class="st0" d="M120.5,92.5H177l-1.9-5h-52.7"/>
<path class="st0" d="M117.7,100.1h62.1l-1.9-5h-58.2"/>
<path class="st0" d="M163.5,107.6h19.1l-2-5h-18.8"/>
<path class="st0" d="M164.2,110.2l1.7,5h19.6l-2-5"/>
<rect x="183.4" y="42.2" class="st0" width="18.3" height="5"/>
<rect x="183.4" y="49.7" class="st0" width="18.3" height="5"/>
<rect x="183.4" y="57.3" class="st0" width="18.3" height="5"/>
<rect x="183.4" y="64.8" class="st0" width="18.3" height="5"/>
<rect x="183.4" y="72.4" class="st0" width="18.3" height="5"/>
<rect x="183.4" y="79.9" class="st0" width="18.3" height="5"/>
<path class="st0" d="M183.5,92.5H202c-0.2-1.4-0.4-2.8-0.4-4.2v-0.9h-18.3v2.4C183.4,90.8,183.5,91.7,183.5,92.5z"/>
<path class="st0" d="M185.2,100.1H206c-1.6-1.3-2.8-3-3.4-5h-18.8C184.1,96.8,184.5,98.5,185.2,100.1z"/>
<path class="st0" d="M242.4,102.6h-56.2c1,1.8,2.2,3.5,3.6,5h49.1C240.2,106.1,241.4,104.4,242.4,102.6z"/>
<path class="st0" d="M244.8,95.1H226c-0.6,2-1.8,3.7-3.4,5h20.9C244,98.4,244.5,96.8,244.8,95.1z"/>
<rect x="227" y="42.2" class="st0" width="18.3" height="5"/>
<rect x="227" y="49.7" class="st0" width="18.3" height="5"/>
<rect x="227" y="57.3" class="st0" width="18.3" height="5"/>
<rect x="227" y="64.8" class="st0" width="18.3" height="5"/>
<rect x="227" y="72.4" class="st0" width="18.3" height="5"/>
<rect x="227" y="79.9" class="st0" width="18.3" height="5"/>
<path class="st0" d="M245.2,89.9v-2.4H227v0.9c0,1.4-0.1,2.8-0.3,4.2h18.4C245.1,91.7,245.2,90.8,245.2,89.9z"/>
<path class="st0" d="M73.3,79.9v5h67.9l1.6-5"/>
<path class="st0" d="M73.3,72.4v5h70.1l1.6-5"/>
</svg>
